<?xml version="1.0" encoding="UTF-8"?>
<svg version="1.1" viewBox="0 0 250 91" xmlns="http://www.w3.org/2000/svg" xmlns:cc="http://creativecommons.org/ns#" xmlns:dc="http://purl.org/dc/elements/1.1/" xmlns:rdf="http://www.w3.org/1999/02/22-rdf-syntax-ns#" xmlns:xlink="http://www.w3.org/1999/xlink">
<path class="cls-77" d="m97.725 24.66-11.785 3.9539 3.4769 9.2366z" fill="#fff" fill-opacity=".90377" stroke-width=".17035"/>
<path class="cls-76" d="m97.725 24.66-14.852-5.591 3.0664 9.545z" fill="#fff" fill-opacity=".86192" stroke-width=".17035"/>
<path class="cls-75" d="m97.725 24.658s-8.1464-11.649-16.102-16.555a0.66609 0.66609 0 0 0-1.0051 0.71208l2.2555 10.26z" fill="#fff" fill-opacity=".90377" stroke-width=".17035"/>
<path class="cls-62" d="m105.57 27.229-5.3883-9.9334-1.7155 5.9352z" fill="#fff" fill-opacity=".83682" stroke-width=".17035"/>
<path class="cls-64" d="m98.47 23.229a15.572 15.572 0 0 0 1.0818 4.034l4.6796 6.6813 1.3424-6.7154z" fill="#fff" fill-opacity=".79916" stroke-width=".17035"/>
<path class="cls-61" d="m112.28 40.174-6.7069-12.945 2.5076 13.22z" fill="#fff" fill-opacity=".70293" stroke-width=".17035"/>
<path class="cls-72" d="m95.265 61.109-13.415 9.8669 8.5416-12.044z" fill="#fff" fill-opacity=".82845" stroke-width=".17035"/>
<path class="cls-69" d="m96.72 66.683-7.8721 6.2571 6.4173-11.831z" fill="#fff" fill-opacity=".82845" stroke-width=".17035"/>
<path class="cls-73" d="m95.265 61.109-10.54 7.7511s-3.9659 14.243-3.9182 14.139c0.0477-0.10392 8.0424-10.063 8.0424-10.063z" fill="#fff" fill-opacity=".9205" stroke-width=".17035"/>
<path class="cls-86" d="m95.265 61.109 4.0681-4.6711-2.6132 10.245z" fill="#fff" fill-opacity=".841" stroke-width=".17035"/>
<path class="cls-49" d="m99.33 56.438-4.0681 4.6711 0.45144-7.6472z" fill="#fff" fill-opacity=".9205" stroke-width=".17035"/>
<path class="cls-85" d="m95.717 53.462 9.2894-0.35774-5.6728 3.3338z" fill="#fff" fill-opacity=".94561" stroke-width=".17035"/>
<path class="cls-56" d="m108.5 63.811s-3.9182 0.25383-7.0084 1.0766l7.8363-8.9112z" fill="#fff" fill-opacity=".841" stroke-width=".17035"/>
<path class="cls-54" d="m116.26 59.53-3.189-9.1634-3.7461 5.6098z" fill="#fff" fill-opacity=".93305" stroke-width=".17035"/>
<path class="cls-58" d="m113.08 50.366-8.0697 2.7376 4.3236 2.8722z" fill="#fff" fill-opacity=".83264" stroke-width=".17035"/>
<path class="cls-57" d="m109.33 55.976-9.9964 0.46166 2.1533 8.4496z" fill="#fff" fill-opacity=".93305" stroke-width=".17035"/>
<path class="cls-47" d="m95.717 53.462 6.896-9.9061s2.4565 9.5109 2.385 9.5484c-0.0716 0.03748-9.2809 0.35774-9.2809 0.35774z" fill="#fff" fill-opacity=".90377" stroke-width=".17035"/>
<path class="cls-84" d="m102.51 43.699-13.097-5.8483 3.2844 6.9266z" fill="#fff" fill-opacity=".90377" stroke-width=".17035"/>
<path class="cls-82" d="m106.18 36.668-6.6115-4.0868 5.4394 20.523z" fill="#fff" fill-opacity=".86192" stroke-width=".17035"/>
<path class="cls-48" d="m113.08 50.366-0.79556-10.192-4.1992 0.27427z" fill="#fff" fill-opacity=".76151" stroke-width=".17035"/>
<path class="cls-51" d="m121.7 50.232-3.7631-6.2384-4.8602 6.373z" fill="#fff" fill-opacity=".79498" stroke-width=".17035"/>
<path class="cls-53" d="m113.08 50.366-0.42248-5.0936 5.2827-1.2794z" fill="#fff" fill-opacity=".87448" stroke-width=".17035"/>
<path class="cls-65" d="m117.94 43.993-4.2742-6.373s-1.0869 1.3441-1.3816 2.5553l0.37308 5.0987z" fill="#fff" fill-opacity=".79498" stroke-width=".17035"/>
<path d="m122.49 34.674-0.84571 1.7344a1.2112 1.2112 0 0 1 0.7129 1.1016 1.2112 1.2112 0 0 1-1.2109 1.2109 1.2112 1.2112 0 0 1-0.56055-0.13867l-2.6426 5.418 8.5664-1.8984c0.36967-0.32708 0.75-1.1934 0.75-1.1934l-4.7695-6.2344z" fill="#fff" fill-opacity=".94561" stroke-width=".17035"/>
<path class="cls-31" d="m126.46 63.925a2.6371 2.6371 0 0 0-1.2231-0.85177 4.3969 4.3969 0 0 0-1.4616-0.27938 3.867 3.867 0 0 0-0.83303 0.0937 3.109 3.109 0 0 0-0.80918 0.29471 1.7325 1.7325 0 0 0-0.6201 0.53321 1.3628 1.3628 0 0 0-0.2419 0.80748 1.339 1.339 0 0 0 0.56728 1.1669 5.3577 5.3577 0 0 0 1.4378 0.69505q0.86541 0.2879 1.8739 0.5775a7.7733 7.7733 0 0 1 1.8654 0.8143 4.4582 4.4582 0 0 1 1.4344 1.4088q0.56728 0.88414 0.56217 2.3577a5.4002 5.4002 0 0 1-0.54343 2.4514 4.9726 4.9726 0 0 1-1.4208 1.7325 5.9965 5.9965 0 0 1-2.0732 1.0221 9.4905 9.4905 0 0 1-5.5348-0.1908 7.6472 7.6472 0 0 1-2.6115-1.6269l2.6507-2.896a3.8636 3.8636 0 0 0 1.4361 1.1823 4.0442 4.0442 0 0 0 2.7103 0.31856 3.0476 3.0476 0 0 0 0.83474-0.31856 1.8194 1.8194 0 0 0 0.59624-0.54514 1.3628 1.3628 0 0 0 0.22827-0.78533 1.4208 1.4208 0 0 0-0.56387-1.1942 5.3474 5.3474 0 0 0-1.4599-0.75467q-0.87903-0.31175-1.9012-0.6252a8.5177 8.5177 0 0 1-1.9097-0.83474 4.5825 4.5825 0 0 1-1.4582-1.385q-0.58091-0.85177-0.5758-2.2623a5.0527 5.0527 0 0 1 0.54343-2.385 5.1634 5.1634 0 0 1 1.4327-1.7035 6.2282 6.2282 0 0 1 2.0613-1.0221 8.4956 8.4956 0 0 1 2.4054-0.34071 9.4615 9.4615 0 0 1 2.758 0.41055 6.3644 6.3644 0 0 1 2.3986 1.3628zm15.409 0.31345a3.6592 3.6592 0 0 0-1.3424-1.0221 4.5059 4.5059 0 0 0-1.8364-0.35945 4.62 4.62 0 0 0-3.4906 1.523 5.281 5.281 0 0 0-1.0221 1.7223 6.5552 6.5552 0 0 0-0.0136 4.3406 5.3968 5.3968 0 0 0 1.0051 1.7172 4.5604 4.5604 0 0 0 1.5059 1.1346 4.3543 4.3543 0 0 0 1.8739 0.41056 4.1754 4.1754 0 0 0 2.0238-0.46848 4.0204 4.0204 0 0 0 1.4548-1.3271l3.0851 2.3168a6.4445 6.4445 0 0 1-2.7257 2.2044 8.4036 8.4036 0 0 1-3.3815 0.70186 10.392 10.392 0 0 1-3.6371-0.63031 8.3201 8.3201 0 0 1-2.8722-1.7819 8.0203 8.0203 0 0 1-1.8824-2.8023 10.237 10.237 0 0 1 0.0238-7.3252 8.0237 8.0237 0 0 1 1.9012-2.7887 8.3354 8.3354 0 0 1 2.8841-1.7632 10.359 10.359 0 0 1 3.6422-0.60646 8.9896 8.9896 0 0 1 1.4872 0.13628 7.9862 7.9862 0 0 1 1.5213 0.42078 6.7937 6.7937 0 0 1 1.4361 0.7666 5.7921 5.7921 0 0 1 1.2334 1.1686zm3.6354-4.3338h4.0408l2.6422 10.789h0.0477l3.557-10.789h3.4463l3.4718 11.111h0.0477l2.8773-11.111h3.7614l-4.9829 16.848h-3.3202l-3.6694-11.661h-0.046l-3.7478 11.656h-3.1771z" fill="#fff" stroke-width=".17035"/>
<path class="cls-50" d="m121.7 50.232s-1.6848 5.5689-5.4343 9.298l-3.189-9.1634z" fill="#fff" fill-opacity=".83264" stroke-width=".17035"/>
<path class="cls-52" d="m121.7 50.232s1.5247-4.5399 1.8552-4.8738 1.9029-1.4395 2.9471-3.264l-8.5654 1.8995z" fill="#fff" fill-opacity=".86611" stroke-width=".17035"/>
<path class="cls-55" d="m116.26 59.53s-4.4139 3.3577-7.7699 4.281l0.83473-7.8363z" fill="#fff" fill-opacity=".87448" stroke-width=".17035"/>
<path class="cls-59" d="m109.33 55.976-4.3236-2.8722-5.6728 3.3338z" fill="#fff" fill-opacity=".86611" stroke-width=".17035"/>
<path class="cls-60" d="m101.49 64.887s-3.8142 0.55876-4.7699 1.7955l2.6235-10.245z" fill="#fff" fill-opacity=".87448" stroke-width=".17035"/>
<path class="cls-63" d="m100.19 17.295-0.7683-1.6269a0.34071 0.34071 0 0 0-0.28279-0.21124c-0.17036-0.01192-0.34071 0.05111-0.57921 0.39863-0.40885 0.61839-1.1005 3.54-0.09199 7.3798z" fill="#fff" fill-opacity=".79916" stroke-width=".17035"/>
<path d="m120.26 34.205c-1.7281-0.057382-4.2222 0.51254-6.5977 3.416l4.2734 6.373 2.6426-5.4141a1.2112 1.2112 0 0 1-0.64648-1.0703 1.2112 1.2112 0 0 1 1.2109-1.2109 1.2112 1.2112 0 0 1 0.49609 0.10742l0.84571-1.7324s-0.88054-0.42412-2.2246-0.46875z" fill="#fff" fill-opacity=".86611" stroke-width=".17035"/>
<path class="cls-68" d="m122.49 34.673s3.3253 1.1652 5.4241 4.2589l-0.65756 1.971z" fill="#fff" fill-opacity=".89121" stroke-width=".17035"/>
<path class="cls-70" d="m96.72 66.683-9.4683 14.794 1.5962-8.5365z" fill="#fff" fill-opacity=".8954" stroke-width=".17035"/>
<path class="cls-71" d="m95.265 61.109 0.45144-7.6472s-3.5314 1.7087-5.3253 5.4769z" fill="#fff" fill-opacity=".8954" stroke-width=".17035"/>
<path class="cls-78" d="m97.725 24.66 4.7887 19.039-13.097-5.8483z" fill="#fff" fill-opacity=".80753" stroke-width=".17035"/>
<path class="cls-79" d="m95.717 53.462-3.0153-8.6847 9.8124-1.0783z" fill="#fff" fill-opacity=".86192" stroke-width=".17035"/>
<path class="cls-80" d="m108.08 40.448-3.85-6.5041 1.3424-6.7154z" fill="#fff" fill-opacity=".83682" stroke-width=".17035"/>
<path class="cls-81" d="m113.08 50.366-6.8977-13.698-1.172 16.436z" fill="#fff" fill-opacity=".79916" stroke-width=".17035"/>
<path class="cls-83" d="m106.18 36.668-8.453-12.008 1.8415 7.9215z" fill="#fff" fill-opacity=".90377" stroke-width=".17035"/>
<path class="cls-31" d="m127.37 38.223-0.21805 0.48892-1.6269-0.06133-0.3407 1.8518s13.969 1.9966 15.71 2.264c1.8449 0.28449 6.4735 1.3782 6.4735 1.3782s-5.0272-3.5894-19.998-5.9215z" fill="#fff" stroke-width=".17035"/>
</svg>
