<?xml version="1.0" encoding="UTF-8"?>
<svg version="1.1" viewBox="0 0 250 91" xmlns="http://www.w3.org/2000/svg" xmlns:cc="http://creativecommons.org/ns#">
<g transform="matrix(.80254 0 0 .80254 14.70 238.03)" fill="#fff" stroke-width=".2663">
<path d="m118.29-193.55c-1.49-0.46-3.58-1.82-4.62-3.01-0.46-0.52-1.21-1.74-1.67-2.70-0.75-1.58-0.82-1.98-0.82-4.40 0-2.43 0.07-2.81 0.84-4.44 1.58-3.33 4.28-5.44 7.83-6.09 6.73-1.24 13.04 4.52 12.41 11.32-0.41 4.39-3.01 7.83-6.98 9.22-1.70 0.59-5.24 0.65-6.97 0.11zm5.76-4.92c3.09-1.57 4.06-5.58 2.11-8.73-1.37-2.22-4.83-2.97-7.22-1.57-3.73 2.18-3.65 8.39 0.12 10.26 1.47 0.73 3.59 0.75 4.97 0.05zm15.56 4.81c-2.69-0.92-4.19-2.66-5.00-5.75-0.31-1.22-0.41-3.06-0.41-8.05v-6.46h5.01l0.08 6.59c0.08 6.19 0.12 6.65 0.67 7.68 0.73 1.36 2.10 2.08 3.58 1.88 1.38-0.18 2.16-0.73 2.77-1.96 0.44-0.90 0.51-1.77 0.59-7.60l0.08-6.59h5.01l-2e-3 5.92c-2e-3 6.57-0.24 8.70-1.19 10.58-0.85 1.68-2.80 3.36-4.48 3.86-1.82 0.54-5.03 0.49-6.74-0.09zm41.25 0.01c-2.65-1.06-4.59-3.05-5.70-5.87-0.81-2.06-0.84-6.43-0.04-8.45 0.85-2.15 2.14-3.79 3.83-4.89 3.31-2.14 7.40-1.98 10.54 0.41l0.88 0.67v-9.88h5.05v27.96h-5.05v-1.92l-0.93 0.70c-1.72 1.31-3.02 1.73-5.32 1.73-1.36-5e-3 -2.53-0.17-3.25-0.46zm6.68-4.71c2.69-1.27 3.80-5.37 2.28-8.38-2.00-3.97-7.61-3.89-9.65 0.13-1.57 3.11 0.05 7.71 3.06 8.63 1.21 0.36 3.07 0.20 4.30-0.37zm16.35 4.78c-2.53-0.93-4.71-3.16-5.83-5.98-0.76-1.92-0.82-6.11-0.10-8.12 1.18-3.30 3.61-5.60 6.78-6.41 2.67-0.67 5.38-0.09 7.65 1.63l0.88 0.67v-2.15h5.05v20.23h-5.05v-1.89l-0.87 0.66c-1.70 1.29-3.09 1.74-5.38 1.73-1.17-7e-3 -2.57-0.17-3.12-0.37zm7.10-5.11c2.93-2.03 3.27-7.12 0.63-9.58-1.50-1.40-4.02-1.79-5.94-0.90-2.08 0.96-3.14 2.84-3.13 5.53 0.01 2.72 1.34 4.78 3.66 5.63 1.32 0.48 3.54 0.17 4.77-0.68zm40.22 5.04c-2.90-1.03-5.12-3.22-6.29-6.19-0.79-2.00-0.81-5.66-0.04-7.61 1.18-3.00 3.26-5.11 6.20-6.26 2.05-0.81 5.40-0.80 7.52 0.01 5.94 2.29 8.52 9.04 5.67 14.81-1.09 2.22-2.60 3.70-4.90 4.83-1.27 0.62-1.88 0.74-4.15 0.80-2.04 0.05-2.97-0.03-3.99-0.40zm5.80-4.68c1.21-0.50 2.77-2.33 3.13-3.68 0.52-1.94-0.02-4.43-1.31-5.90-1.28-1.46-4.57-2.07-6.29-1.17-3.57 1.87-4.24 7.03-1.28 9.83 0.41 0.39 1.05 0.83 1.42 0.98 0.97 0.38 3.34 0.35 4.33-0.06zm-161.45-8.96v-13.58h13.60l-0.15 4.92-8.38 0.14v4.77h8.52v5.05h-8.52v12.25h-5.05zm58.85 3.46v-10.11h5.05v0.93c0 0.51 0.06 0.93 0.15 0.93 0.08 0 0.65-0.33 1.26-0.75 1.72-1.16 2.83-1.51 4.70-1.49 2.92 0.03 5.06 1.35 6.23 3.84 0.52 1.11 0.56 1.72 0.64 8.98l0.08 7.78h-5.03l-0.11-6.45c-0.12-7.19-0.35-8.37-1.82-9.13-1.95-1.01-4.17-0.11-5.30 2.14-0.64 1.28-0.66 1.54-0.75 7.38l-0.08 6.05h-5.01zm70.56 2.26v-7.85h-4.52v-4.52h4.52v-7.45h5.05v7.45h4.79v4.52h-4.79v15.71h-5.05zm12.25-2.26v-10.11h5.05v20.23h-5.05zm30.15 0.06 0.06-10.05 4.92-0.15v0.94c0 0.51 0.05 0.94 0.12 0.94 0.06 0 0.69-0.36 1.39-0.80 1.79-1.14 3.81-1.68 5.50-1.46 1.66 0.20 3.88 1.41 4.69 2.55 1.18 1.66 1.32 2.79 1.32 10.68v7.41h-5.05v-5.84c0-6.67-0.23-8.27-1.37-9.41-0.70-0.70-0.90-0.76-2.18-0.65-3.58 0.29-4.40 2.37-4.41 11.19l-5e-3 4.72h-5.06zm-28.96-12.15c-1.60-0.69-2.37-2.84-1.61-4.46 0.82-1.73 2.92-2.32 4.60-1.30 1.07 0.65 1.50 1.45 1.50 2.81 0 1.33-0.72 2.48-1.86 2.95-1.06 0.44-1.58 0.44-2.62-0.01zm-114.5-10.28c-4.14-1.32-6.79-5.22-6.79-9.97 0-2.27 0.56-4.34 1.64-6.05 4.17-6.57 14.78-6.08 18.32 0.84 0.64 1.26 1.32 4.15 1.33 5.66l5e-3 0.99h-16.48l0.28 0.86c0.85 2.55 2.85 3.77 5.93 3.61 1.60-0.08 2.15-0.23 3.29-0.94l1.36-0.85 1.99 0.94c1.09 0.52 1.99 1.00 1.99 1.07 0 0.41-1.27 1.79-2.32 2.51-2.65 1.82-7.19 2.37-10.59 1.28zm9.18-12.89c0-0.61-1.57-2.25-2.75-2.85-1.61-0.82-4.04-0.75-5.59 0.14-1.10 0.64-2.30 2.10-2.30 2.79 0 0.21 1.53 0.30 5.32 0.30 4.50 0 5.32-0.06 5.32-0.39zm13.31 12.84c-2.06-0.79-4.49-3.26-5.32-5.40-1.32-3.42-0.96-8.00 0.84-10.84 2.77-4.36 8.44-5.71 12.5-2.98 0.74 0.50 1.40 0.91 1.46 0.91 0.05 0 0.10-0.41 0.10-0.93v-0.93h5.05v20.23h-5.05v-1.88l-0.99 0.80c-0.54 0.44-1.52 0.98-2.16 1.21-1.67 0.59-4.63 0.50-6.42-0.17zm5.94-4.22c1.37-0.38 2.98-1.89 3.52-3.31 0.58-1.52 0.43-4.14-0.31-5.59-1.29-2.51-4.75-3.54-7.29-2.19-3.19 1.70-3.90 6.70-1.36 9.54 1.44 1.60 3.32 2.14 5.44 1.55zm-57.00-9.36 0.06-13.64 5.19-0.15v10.40h9.32v-10.38h5.05v27.42h-5.04l-0.14-11.85h-9.05l-0.14 11.85h-5.32zm68.90-0.33v-13.98h5.05v27.96h-5.05zm11.45 6.13v-7.84l-4.39-0.15-0.15-4.39h4.54v-7.45h5.05v7.45h5.05v4.52h-5.05v15.71h-5.05zm12.25-6.13v-13.98h5.05v9.65l0.59-0.44c2.71-2.00 6.12-2.47 8.59-1.20 1.48 0.76 2.90 2.43 3.31 3.92 0.15 0.57 0.27 4.15 0.27 8.51l1e-3 7.52h-5.05l-2e-3 -6.19c-2e-3 -6.78-0.16-7.86-1.36-9.06-0.72-0.72-0.90-0.77-2.24-0.66-1.69 0.14-2.78 0.97-3.60 2.73-0.43 0.93-0.49 1.79-0.49 7.12l-6e-3 6.05h-5.05zm-51.94-18.32c-2.75-0.77-5.08-2.78-6.28-5.40-3.74-8.18 2.67-16.82 11.40-15.32 5.09 0.87 8.35 4.54 8.68 9.77l0.14 2.25h-8.15c-5.47 0-8.15 0.09-8.15 0.27 0 0.59 1.08 2.35 1.84 2.99 1.19 1.00 2.49 1.33 4.60 1.18 1.53-0.11 2.05-0.27 3.07-0.99l1.22-0.86 4.24 2.10-1.14 1.24c-0.66 0.72-1.86 1.59-2.86 2.08-1.55 0.76-1.99 0.85-4.55 0.93-1.77 0.05-3.29-0.04-4.05-0.26zm8.61-12.86c0.23-0.23-0.44-1.45-1.18-2.13-2.86-2.60-7.55-1.88-9.24 1.41-0.16 0.31-0.29 0.64-0.29 0.73 0 0.20 10.52 0.19 10.73-0.01zm-49.34 1.63v-11.05h-4.79v-5.32h15.17v5.32h-5.05v22.10h-5.32zm13.31-2.92v-13.98h5.05v4.79c0 2.63 0.06 4.79 0.13 4.79 0.07 0 0.77-0.42 1.54-0.93 3.77-2.50 8.44-1.61 10.43 2.00l0.79 1.45 0.16 15.84h-5.04l-0.09-6.59c-0.08-5.32-0.18-6.77-0.52-7.55-0.58-1.30-1.41-1.83-2.90-1.83-1.64 0-2.85 0.82-3.70 2.53-0.64 1.28-0.66 1.55-0.75 7.38l-0.09 6.05h-5.00z"/>
<path d="m29.68-193.98c-9.62-1.32-18.41-5.42-25.40-11.87-13.36-12.31-18.22-31.25-12.49-48.68 0.43-1.31 1.56-3.95 2.50-5.85 5.81-11.71 16.79-20.71 29.20-23.94 7.68-1.99 16.39-2.00 24.03-0.01 12.76 3.31 24.15 12.87 29.83 25.02 1.52 3.26 2.94 7.79 3.62 11.53 0.80 4.42 0.79 11.67-0.01 16.14-2.58 14.29-11.81 26.65-24.66 33.03-6.94 3.44-11.89 4.65-19.70 4.80-2.78 0.05-5.89-0.01-6.92-0.15zm9.45-21.67c9.59-1.46 17.26-8.26 19.97-17.72 0.73-2.55 0.99-7.48 0.54-10.27-1.57-9.75-8.78-17.47-18.65-19.97-2.66-0.67-8.40-0.68-10.91-0.01-7.26 1.93-12.65 6.04-15.95 12.18-2.27 4.21-3.10 7.97-2.88 12.95 0.40 8.81 5.24 16.32 13.12 20.35 2.88 1.47 4.62 2.06 7.43 2.49 2.9 0.45 4.35 0.45 7.33-3e-3z" fill-opacity=".82596"/>
</g>
</svg>
